<svg xmlns="http://www.w3.org/2000/svg" width="702.464" height="959.488" viewBox="0 0 702.46399 959.48798"><path d="M441.844 0c-76.459 0-131.393 18.1-164.844 54.281-33.451 36.181-50.188 89.753-50.188 160.75v51.438l-93.719-93.875c-17.749-17.067-44-44.094-44-44.094l-89.094 88.063s26.751 27.527 44.5 44.594l83 83.125v134.938h99.313v36.875l-181.844 181.844-44.969 44.969 89.094 88.063s26.996-27.058 44.063-44.125l93.656-93.813v266.469h197.625v-317.813l145.406 145.625c17.053 17.08 44.563 43.656 44.563 43.656l88.063-88.063s-27.371-26.751-44.438-44.5l-218.281-218.656.531-.531h117.281l13.875-131.375 87.031-87.188c17.067-17.067 44-44.094 44-44.094l-88.063-88.063-44.031 44.031-141.844 141.844h-3.063v-82.938c0-12.288.697-21.861 2.063-28.688 1.365-6.827 4.091-13.642 8.188-20.469 4.096-6.827 10.563-11.264 19.438-13.313 8.875-2.048 20.825-3.411 35.844-4.094h82.938v-164.875h-132.094z"/></svg>
